<svg xmlns:dc="http://purl.org/dc/elements/1.1/" xmlns:cc="http://creativecommons.org/ns#" xmlns:rdf="http://www.w3.org/1999/02/22-rdf-syntax-ns#" xmlns:svg="http://www.w3.org/2000/svg" xmlns="http://www.w3.org/2000/svg" xmlns:sodipodi="http://sodipodi.sourceforge.net/DTD/sodipodi-0.dtd" xmlns:inkscape="http://www.inkscape.org/namespaces/inkscape" width="334.6" height="334.6" viewBox="0 0 267.69626 267.70399" id="svg2" version="1.1" inkscape:version="0.48.5 r10040" style="fill-rule:evenodd">
  <metadata id="metadata140">
    <rdf:RDF>
      <cc:Work rdf:about="">
        <dc:format>image/svg+xml</dc:format>
        <dc:type rdf:resource="http://purl.org/dc/dcmitype/StillImage"/>
        <dc:title/>
      </cc:Work>
    </rdf:RDF>
  </metadata>
  <defs id="defs138"/>
  <g id="g4" transform="translate(-9.9267458,-471.56301)">
    <g id="g6">
      <g id="g8">
        <path style="fill:#ececed;stroke:none" d="m 153.6 707.2 c 35.5 0 64.3 7.2 64.3 16 0 8.8 -28.8 16 -64.3 16 -35.5 0 -64.3 -7.2 -64.3 -16 0 -8.8 28.8 -16 64.3 -16 z" id="path10" inkscape:connector-curvature="0"/>
        <g id="g12">
          <path style="fill:#ffcc00;stroke:#2c2c2b;stroke-width:0.99978" d="m 107.1 680.2 0 24.2 c 5.4 2 10.7 2.1 15.8 0.1 l 0.5 -23.8 c -5.4 0.8 -10.8 0.8 -16.2 -0.6 z" id="path14" inkscape:connector-curvature="0"/>
          <path style="fill:#006ea0;stroke:#2c2c2b;stroke-width:0.99978" d="m 96 660.8 -0.2 15.7 c 4.9 4.2 13.8 5 24.1 4.6 l 0 -4.9 c -10.4 -2.1 -18.4 -7.2 -23.9 -15.3 z" id="path16" inkscape:connector-curvature="0"/>
          <path style="fill:#ffcc00;stroke:#2c2c2b;stroke-width:0.99978" d="m 128 683.4 0.5 26.1 c 5.8 2.1 11.1 2 16 -0.2 l 0.5 -25.6 c -5.5 1.6 -11.1 1.5 -16.9 -0.2 z" id="path18" inkscape:connector-curvature="0"/>
          <path style="fill:#f6c63c;stroke:none" d="m 130.5 685.3 -0.4 2.8 c 2.7 0.5 5.5 1 8.6 1.3 1 6.6 0.8 13.2 0 19.9 l 4.6 -0.4 0.4 -23.4 c -4.4 0.2 -8.9 0.1 -13.3 -0.2 z" id="path20" inkscape:connector-curvature="0"/>
          <path style="fill:#f6c63c;stroke:none" d="m 108.6 682.2 -0.4 2.6 c 2.7 0.5 5.5 0.9 8.6 1.2 1 6.1 0.8 12.2 0 18.3 l 4.6 -0.4 0.4 -21.6 c -4.4 0.2 -8.9 0.1 -13.3 -0.2 z" id="path22" inkscape:connector-curvature="0"/>
          <path style="fill:#006e9f;stroke:#2c2c2b;stroke-width:0.99978" d="m 92.8 653.6 c 11.6 3 23.2 4.2 34.5 2.5 l 20.1 1.8 c 6.1 0.2 11.4 0.4 16 -0.7 -1.7 4.5 -3.7 8.4 -6.9 10.8 l 0.2 12.8 c -11.6 5 -23.8 5.1 -36.6 1.8 l 0 -6.4 C 107.6 674.2 98.5 666.6 92.8 653.6 z" id="path24" inkscape:connector-curvature="0"/>
          <path style="fill:#ffcc00;stroke:#2c2c2b;stroke-width:0.99978" d="m 139.7 586.2 c -5 -31.3 -0.1 -67.4 10.3 -102.1 l -7.5 4.8 -1.4 -8.9 -5.5 5.9 -2.1 -9.4 -5.3 7.3 -3.4 -9.2 -5.5 6.6 -3 -8.7 -5.5 7.8 -3.4 -7.5 -4.6 6.9 -4.8 -7.1 -3.4 7.8 -5.5 -7.3 -3.2 8.2 -5.9 -5.7 -2.5 43.2 c -4.2 2.1 -5 4.9 -0.9 8.8 l -2.3 21.4 c 1.6 11.4 -4.2 21.5 -2.7 23 7.6 7.9 19.5 7.9 29.1 7 0.7 3.6 3.5 5.2 7.5 5.5 2.2 2.8 2.9 5.6 2 8.4 12.3 1.9 22.4 0.2 29.5 -6.8 z" id="path26" inkscape:connector-curvature="0"/>
          <path style="fill:#ffffff;stroke:#2c2c2b;stroke-width:0.99978" d="m 84.1 523.8 c 7.6 0 13.8 6.2 13.8 13.8 0 7.6 -6.2 13.8 -13.8 13.8 -7.6 0 -13.8 -6.2 -13.8 -13.8 0 -7.6 6.2 -13.8 13.8 -13.8 z" id="path28" inkscape:connector-curvature="0"/>
          <path style="fill:#2c2c2b;stroke:#2c2c2b;stroke-width:0.21600001" d="m 84.1 535.4 c 1.2 0 2.2 1 2.2 2.2 0 1.2 -1 2.2 -2.2 2.2 -1.2 0 -2.2 -1 -2.2 -2.2 0 -1.2 1 -2.2 2.2 -2.2 z" id="path30" inkscape:connector-curvature="0"/>
          <path style="fill:#f7f7f7;stroke:none" d="m 85.7 549.9 c 3.7 -8.6 4.1 -15.9 0.4 -24.5 9.5 8.9 9.3 16.1 -0.4 24.5 z" id="path32" inkscape:connector-curvature="0"/>
          <path style="fill:#ffcc00;stroke:none" d="m 74.5 547.9 1.4 -2.7 2.5 -1.7 5.2 -0.2 6.7 0.7 3.2 0.6 1.2 2.9 0.7 1.3 -3.2 3.5 -12.2 1.4 -3.5 -2.2 -2 -2.5 -0.1 -1.2 z" id="path34" inkscape:connector-curvature="0"/>
          <path style="fill:none;stroke:#2c2c2b;stroke-width:0.99978" d="m 93.3 544.9 c -6.6 -1.1 -11.5 -1.4 -14.7 -1 -4.6 0.8 -5.6 6.7 -2.5 9.8 3.4 2.5 7.3 3.3 11.5 3.1 l 0.2 -0.2" id="path36" inkscape:connector-curvature="0"/>
          <path style="fill:#ffffff;stroke:#2c2c2b;stroke-width:0.99978" d="m 108.3 523.2 c -8.8 0 -16 7.2 -16 16 0 8.8 7.2 16 16 16 8.8 0 16 -7.2 16 -16 0 -8.8 -7.2 -16 -16 -16 z" id="path38" inkscape:connector-curvature="0"/>
          <path style="fill:#2c2c2b;stroke:#2c2c2b;stroke-width:0.99978" d="m 111.8 537.5 c 1.2 0 2.2 1 2.2 2.2 0 1.2 -1 2.2 -2.2 2.2 -1.2 0 -2.2 -1 -2.2 -2.2 0 -1.2 1 -2.2 2.2 -2.2 z" id="path40" inkscape:connector-curvature="0"/>
          <path style="fill:none;stroke:#2c2c2b;stroke-width:0.99978" d="m 100.8 579 c 8.9 -0.6 16.5 -2.5 21.8 -6.1 1.5 -0.1 2.7 0.6 3.7 1.9 l 0 0 0 0" id="path42" inkscape:connector-curvature="0"/>
          <path style="fill:none;stroke:none" d="m 134.5 590.1 c -6.4 -29.9 -3 -66.9 1.1 -104.2" id="path44" inkscape:connector-curvature="0"/>
          <path style="fill:#ffcc00;stroke:none" d="m 133.2 552.8 2.5 -2.3 1.4 -0.9 1.6 0.2 1.3 0.3 2.2 1.7 0.9 1.6 0.6 3.2 -0.4 3.2 -1.6 2.3 -2.8 1.5 -2.3 -0.1 -1.4 -0.6 -3.3 -1.7 1.4 -8.5 z" id="path46" inkscape:connector-curvature="0"/>
          <path style="fill:none;stroke:#2c2c2b;stroke-width:0.99978" d="m 134.4 551.6 c 4.1 -4.2 9.4 -0.1 9.1 5 0.4 2.4 -0.6 4.4 -2.5 6.1 -2.2 1.7 -4.6 1.6 -7.1 -0.2" id="path48" inkscape:connector-curvature="0"/>
          <path style="fill:#f6c73c;stroke:none" d="m 132.2 589.6 c -6.6 -32.1 -3.6 -66.2 1.3 -100.7 l 6.3 -5.8 1.6 8.6 6.9 -5.4 c -13.7 34.9 -16.9 68.8 -10.1 99.6 l -6 3.8 -0 -0.1 z" id="path50" inkscape:connector-curvature="0"/>
          <path style="fill:none;stroke:#2c2c2b;stroke-width:0.99978" d="m 135.5 556.8 c 1.6 -2.3 3.5 -2.6 5.8 -1" id="path52" inkscape:connector-curvature="0"/>
          <path style="fill:none;stroke:#2c2c2b;stroke-width:0.99978" d="m 139 558.8 c 0.6 -1.5 0.2 -2.7 -0.8 -3.9" id="path54" inkscape:connector-curvature="0"/>
          <path style="fill:#f7f7f7;stroke:none" d="m 114.7 552.2 c 3.7 -8.6 4.1 -15.9 0.4 -24.5 9.5 8.9 9.3 16.1 -0.4 24.5 z" id="path56" inkscape:connector-curvature="0"/>
          <path style="fill:#f6c63c;stroke:none" d="m 132.8 561.4 c 3.1 0.5 6.1 -0.3 9.1 -2.2 l 0 -0.1 0.2 0 c -3 3.5 -6.1 3.8 -9.2 2.2 z" id="path58" inkscape:connector-curvature="0"/>
          <path style="fill:#e21c2a;stroke:#2c2c2b;stroke-width:0.99978" d="m 140.5 584.9 c -7.1 6.8 -16.9 9.9 -30.7 7.5 l -1.4 1.6 c -3.2 10.9 -5.7 21.8 -7.1 32.7 -6.8 7.3 -10.3 15.9 -11 25.6 0.9 4.6 21.1 4.5 48.7 5.5 10.1 0.4 18.9 0.1 26.3 -0.6 -0.9 -11.6 -4.9 -22.3 -12.6 -31.8 1.1 -13 -2 -26.4 -12.4 -40.6 z" id="path60" inkscape:connector-curvature="0"/>
          <path style="fill:#e21c2a;stroke:#2c2c2b;stroke-width:0.99978" d="m 128 613.7 c -0 -10.5 2.7 -19.4 11.5 -24.4 1.7 -0.9 3.6 -1.1 5.8 -0.1 8.7 5.3 10.8 14.5 10.6 25 -9.4 3.7 -18.7 3.4 -28 -0.5 z" id="path62" inkscape:connector-curvature="0"/>
          <path style="fill:#e21c2a;stroke:#2c2c2b;stroke-width:0.99978" d="m 156.6 613.7 c -9.2 -2.1 -18.7 -2.3 -28.4 -0.5" id="path64" inkscape:connector-curvature="0"/>
          <path style="fill:#e21c2a;stroke:#2c2c2b;stroke-width:0.99978" d="m 107.9 594.6 -4.8 20.1 c -1.9 -1.3 -4 -1.6 -5.6 -4 2.1 -6.3 5.6 -11.6 10.4 -16.1 z" id="path66" inkscape:connector-curvature="0"/>
          <path style="fill:#ffcc00;stroke:#2c2c2b;stroke-width:0.99978" d="m 100.1 613.3 c -2.3 7.2 -3.2 13.5 -3.7 19.7 l 4.7 -7 c 0.7 -3.8 1.3 -7.8 2 -11.9 l -2.9 -0.7 z" id="path68" inkscape:connector-curvature="0"/>
          <path style="fill:#ffcc00;stroke:#2c2c2b;stroke-width:0.99978" d="m 131.8 612.7 c 6.5 -1.3 13 -1.7 19.5 0.6 -0.4 17.9 -2.2 35.6 -5.4 52.5 -6.6 -0.9 -12.6 -3.1 -17.6 -7.6 2.4 -15.1 3.5 -30.1 3.4 -45.5 z" id="path70" inkscape:connector-curvature="0"/>
          <path style="fill:#f6c63c;stroke:none" d="m 133.1 616.2 12.8 1.9 c -0.1 15.1 -1.9 30 -5.9 44.4 l 3.9 0.9 c 2.9 -14 5.2 -29.9 6.5 -48.7 -2.2 -1.6 -9.1 -1.7 -17.1 -1.1 l -0.2 2.5 z" id="path72" inkscape:connector-curvature="0"/>
          <path style="fill:#f8ddd2;stroke:none" d="m 110.9 596.1 c -3.7 10.7 -5.3 20.8 -5.3 30.6 -7.6 8.9 -11.3 18.1 -11.1 27.4 l -2.1 -1.5 c 0.8 -9.1 3.6 -18 10.6 -26.4 0.9 -10.9 3.3 -21.6 6.7 -32 l 1.3 1.9 z" id="path74" inkscape:connector-curvature="0"/>
          <path style="fill:#f8ded2;stroke:none" d="m 138.9 590.1 c -4.9 6.2 -7.5 13 -6.9 20.8 l -2.3 -0.2 c -0.3 -8.5 3.1 -15.2 9.2 -20.6 z" id="path76" inkscape:connector-curvature="0"/>
          <path style="fill:#f8ded2;stroke:none" d="m 104.9 600.4 c -2.9 2.9 -4.7 6.3 -4.9 10.4 l -1.2 -0.3 c 0.4 -4.4 2.6 -7.7 6.1 -10.1 z" id="path78" inkscape:connector-curvature="0"/>
          <path style="fill:none;stroke:#2c2c2b;stroke-width:0.99978" d="m 128.5 658.3 c 5.6 4.8 12.7 7.3 20.8 8.3" id="path80" inkscape:connector-curvature="0"/>
          <path style="fill:none;stroke:#2c2c2b;stroke-width:0.99978" d="m 126 659.4 c -1.6 6.2 -0.6 11 3 14.4" id="path82" inkscape:connector-curvature="0"/>
          <path style="fill:#009fe0;stroke:#2c2c2b;stroke-width:0.99978" d="m 103.8 708.2 c -6.4 3.8 -11.4 8.7 -14.4 15 12.2 5.2 26 4.2 40.9 -1.3 -1.2 -6 -3.1 -10.8 -5.8 -14.4 -6.3 3.9 -13.2 4.1 -20.7 0.7 z" id="path84" inkscape:connector-curvature="0"/>
          <path style="fill:#ffffff;stroke:#2c2c2b;stroke-width:0.99978" d="m 106.5 704.1 c -3 0.7 -3.8 2.4 -2 5.2 6.4 2.9 11.9 2.6 17 1.1 2.6 -1.6 3.4 -3.5 1.7 -5.9 -5.2 2 -10.7 2.2 -16.7 -0.4 z" id="path86" inkscape:connector-curvature="0"/>
          <path style="fill:#ffffff;stroke:#2c2c2b;stroke-width:0.99978" d="m 118.2 712.3 c 2.3 0 4.1 1.8 4.1 4.1 0 2.3 -1.8 4.1 -4.1 4.1 -2.3 0 -4.1 -1.8 -4.1 -4.1 0 -2.3 1.8 -4.1 4.1 -4.1 z" id="path88" inkscape:connector-curvature="0"/>
          <path style="fill:#ececed;stroke:none" d="m 119.6 713.5 c 1 0.4 1.7 1.2 1.4 2 -0.2 0.7 -1.3 1 -2.3 0.6 -1 -0.4 -1.7 -1.2 -1.4 -2 0.2 -0.7 1.3 -1 2.3 -0.6 z" id="path90" inkscape:connector-curvature="0"/>
          <path style="fill:#ffffff;stroke:#2c2c2b;stroke-width:0.99978" d="m 89.4 723.5 c 14.7 5 28.3 3.8 41.2 -1.3 1 1 1.1 2.7 0.6 4.9 -13.8 4.9 -28 6.4 -42.8 0.7 -0.6 -1.5 0.2 -3.1 1 -4.5 l 0.1 0.2 z" id="path92" inkscape:connector-curvature="0"/>
          <path style="fill:#009fe0;stroke:#2c2c2b;stroke-width:0.99978" d="m 125.4 713.4 c -6.4 3.8 -11.4 8.7 -14.4 15 12.2 5.2 26 4.2 40.9 -1.3 -1.2 -6 -3.1 -10.8 -5.8 -14.4 -6.3 3.9 -13.2 4.1 -20.7 0.7 z" id="path94" inkscape:connector-curvature="0"/>
          <path style="fill:#ffffff;stroke:#2c2c2b;stroke-width:0.99978" d="m 110.9 728.7 c 14.7 5 28.3 3.8 41.2 -1.3 1 1 1.1 2.7 0.6 4.9 -13.8 4.9 -28 6.4 -42.8 0.7 -0.6 -1.5 0.2 -3.1 1 -4.5 l 0.1 0.2 z" id="path96" inkscape:connector-curvature="0"/>
          <path style="fill:#ffffff;stroke:#2c2c2b;stroke-width:0.99978" d="m 128.2 709.1 c -2.9 0.8 -3.7 2.5 -1.8 5.3 6.6 2.6 12 2 17.1 0.3 2.5 -1.7 3.2 -3.6 1.4 -6 -5.1 2.2 -10.6 2.7 -16.7 0.3 z" id="path98" inkscape:connector-curvature="0"/>
          <path style="fill:#008ed1;stroke:none" d="m 133.4 717.1 7.4 0.7 c 1.7 3.3 2.2 6.5 1.5 9.5 3 0.8 5.7 0.5 7.8 -2.1 l -3.4 -9.7 -6.4 1.5 -6.9 0.1 z" id="path100" inkscape:connector-curvature="0"/>
          <path style="fill:#c2dfe7;stroke:none" d="m 126.3 715.4 c -5.5 4.1 -9.3 8.5 -11.8 13.2 l -2.2 -0.8 c 2.8 -4.5 6.8 -9 12.5 -13.4 l 1.5 1 z" id="path102" inkscape:connector-curvature="0"/>
          <path style="fill:#c2dfe7;stroke:none" d="m 104.7 710.4 c -5.5 4.1 -9.3 8.5 -11.8 13.2 l -2.2 -0.8 c 2.8 -4.5 6.8 -9 12.5 -13.4 l 1.5 1 z" id="path104" inkscape:connector-curvature="0"/>
          <path style="fill:#ececed;stroke:none" d="m 115.7 707.7 c -0.1 0.9 -0.6 1.3 -0.8 2.2 l -1.9 0.9 4.7 -0.3 c 2.3 -0.6 4.2 -1.1 5.4 -2.7 l -1.4 -2.2 c -1.6 1.5 -3.6 2.3 -6.1 2.2 z" id="path106" inkscape:connector-curvature="0"/>
          <path style="fill:#ececed;stroke:none" d="m 137.7 711.9 c -0.1 0.9 -0.6 1.3 -0.8 2.2 l -1.9 0.9 4.7 -0.3 c 2.3 -0.6 4.2 -1.1 5.4 -2.7 l -1.4 -2.2 c -1.6 1.5 -3.6 2.3 -6.1 2.2 z" id="path108" inkscape:connector-curvature="0"/>
          <path style="fill:#ececed;stroke:none" d="m 150.3 729.3 c -2.9 1.7 -5.7 2.2 -8.6 2.2 -1.4 1.1 -1.4 1.9 0 2.5 3.7 -0.5 7.1 -1.5 9.9 -3.1 0.3 -1.1 0 -1.9 -1.4 -1.6 z" id="path110" inkscape:connector-curvature="0"/>
          <path style="fill:#e6edf0;stroke:none" d="m 99 667.2 -0.2 10.5 -1.7 -1.8 c -0.3 -3.8 -0.2 -7.8 0.2 -12 l 1.7 3.3 z" id="path112" inkscape:connector-curvature="0"/>
          <path style="fill:#0b577e;stroke:none" d="m 129.7 673.3 c 6.6 0.3 10.6 -2.1 11.9 -7.1 l 5.9 1.6 -4.3 6.6 c 3.4 -1.9 6.3 -4.4 8 -8.2 0.4 -2.3 -0.5 -4.2 -2.1 -5.9 1.9 -0.1 3.8 0.5 5.6 0.4 2.1 -0.1 4 -0.9 5.9 -1.2 -2.6 2.5 -4.8 5.2 -5.8 8.3 -0.8 3.7 -0.4 7 0.9 10.1 -6.4 3.4 -13.8 4.6 -21.7 4.1 l 3 -4.1 c -3.8 -0.2 -5 -1.9 -6.4 -4.6 l -0.9 -0 z" id="path114" inkscape:connector-curvature="0"/>
          <path style="fill:#0a577e;stroke:none" d="m 106.3 672.3 c 1.5 2.3 2.7 4.5 2.6 6.5 3.5 -0.3 6.6 0.1 9.4 1.1 l -0.5 -2.1 c -4.3 -1 -8.1 -2.8 -11.5 -5.4 z" id="path116" inkscape:connector-curvature="0"/>
          <path style="fill:#fcf7dd;stroke:none" d="m 130.5 688.7 c 0.4 0 0.8 4.3 0.8 9.7 0 5.4 -0.4 9.7 -0.8 9.7 -0.4 0 -0.8 -4.3 -0.8 -9.7 0 -5.4 0.4 -9.7 0.8 -9.7 z" id="path118" inkscape:connector-curvature="0"/>
          <path style="fill:#fcf7dd;stroke:none" d="m 109.2 684.6 c 0.4 0 0.8 4.3 0.8 9.7 0 5.4 -0.4 9.7 -0.8 9.7 -0.4 0 -0.8 -4.3 -0.8 -9.7 0 -5.4 0.4 -9.7 0.8 -9.7 z" id="path120" inkscape:connector-curvature="0"/>
          <path style="fill:#e6eeef;stroke:none" d="m 127.7 659.3 c -0.6 -0.1 -0.9 0.3 -1.2 1 l 0.5 7.1 c 0.3 -3.1 0.8 -5.4 1.7 -6 l 9.6 4.4 -10.6 -6.4 z" id="path122" inkscape:connector-curvature="0"/>
          <path style="fill:#d3242f;stroke:none" d="m 152.6 628.2 c 1.2 9.9 0.6 19.1 -2.7 27.5 l 13.5 0.2 c -1.1 -11.3 -4.7 -19.5 -10.7 -27.7 z" id="path124" inkscape:connector-curvature="0"/>
          <path style="fill:#d3272e;stroke:none" d="m 145.4 592.4 c 3.7 6.1 6 12 6.7 17.7 l 2.8 -0.1 c -2.6 -8.4 -5.1 -14.3 -9.5 -17.5 z" id="path126" inkscape:connector-curvature="0"/>
          <path style="fill:#fffbdc;stroke:none" d="m 75.4 556.7 c -1.5 4.7 -2.5 9.6 -2.6 14.6 1.2 2.3 3.1 3.2 5 3.9 -1.1 -1.4 -2.1 -2.7 -3.2 -4.2 -0.1 -4.1 0.7 -8.3 2.5 -12.7 -0.4 -2.4 -1.1 -1.1 -1.7 -1.6 z" id="path128" inkscape:connector-curvature="0"/>
          <path style="fill:#fffbdc;stroke:none" d="m 78 546.6 c 4.9 0.8 9.7 0.9 14.6 0.5 0.6 -0.4 0.6 -1 0.1 -1.6 -5 -0.7 -9.9 -1 -14.7 -0.9 -0.6 0.7 -0.6 1.3 0 1.9 z" id="path130" inkscape:connector-curvature="0"/>
          <path style="fill:#fffbdc;stroke:none" d="m 80.9 477.9 -1.7 40.4 -3.7 4.5 -0.4 1.8 c 1 -1.1 1.4 -2.2 2.4 -3.3 0.9 -1 2.5 -2 3.4 -3 -0.7 -10.5 -0.5 -23.3 0.9 -39.5 l -0.9 -0.9 z" id="path132" inkscape:connector-curvature="0"/>
          <path style="fill:#f6c63c;stroke:none" d="m 82.6 554 c 2.5 0.6 4.4 1.5 4.4 2 -0.1 0.5 -2.2 0.3 -4.6 -0.3 -2.5 -0.6 -4.4 -1.5 -4.4 -2 0.1 -0.5 2.2 -0.3 4.6 0.3 z" id="path134" inkscape:connector-curvature="0"/>
        </g>
      </g>
    </g>
  </g>
</svg>
